<?xml version="1.0" encoding="utf-8"?>
<!-- Generator: Adobe Illustrator 26.0.1, SVG Export Plug-In . SVG Version: 6.00 Build 0)  -->
<svg version="1.1" id="Layer_1" focusable="false" xmlns="http://www.w3.org/2000/svg" xmlns:xlink="http://www.w3.org/1999/xlink"
	 x="0px" y="0px" viewBox="0 0 576 512" style="enable-background:new 0 0 576 512;" xml:space="preserve">
<style type="text/css">
	.st0{fill:#434555;}
	.st1{fill:#292F39;}
</style>
<g>
	<path class="st0" d="M576,448c0,17.7-14.3,32-32,32H256c-17.7,0-32-14.3-32-32s14.3-32,32-32h288C561.7,416,576,430.3,576,448z"/>
	<path class="st1" d="M246.6,278.6l-192,192c-12.5,12.5-32.8,12.5-45.3,0s-12.5-32.7,0-45.2L178.7,256L9.4,86.6
		c-12.5-12.5-12.5-32.8,0-45.3s32.8-12.5,45.3,0l192,192C259.1,245.9,259.1,266.1,246.6,278.6z"/>
</g>
</svg>
