<?xml version="1.0" encoding="utf-8"?>
<!-- Generator: Adobe Illustrator 26.0.1, SVG Export Plug-In . SVG Version: 6.00 Build 0)  -->
<svg version="1.1" id="Layer_1" focusable="false" xmlns="http://www.w3.org/2000/svg" xmlns:xlink="http://www.w3.org/1999/xlink"
	 x="0px" y="0px" viewBox="0 0 448 512" style="enable-background:new 0 0 448 512;" xml:space="preserve">
<style type="text/css">
	.st0{fill:#434555;}
	.st1{fill:#292F39;}
</style>
<g>
	<path class="st0" d="M368,0c-44.2,0-80,35.8-80,80c0,32.8,19.7,60.1,48,73.3v6.7c0,35.3-28.7,64-64,64h-96
		c-23.3,0-45.2,6.2-64,17.1v-87.8c28.3-13.2,48-40.5,48-73.3c0-44.2-35.8-80-80-80S0,35.8,0,80c0,32.8,19.8,60.1,48,73.3v205.4
		C19.8,371,0,399.2,0,432c0,44.2,35.8,80,80,80s80-35.8,80-80c0-32.8-19.7-61-48-73.3V352c0-35.3,28.7-64,64-64h96
		c70.7,0,128-57.3,128-128v-6.7c28.3-13.2,48-40.5,48-73.3C448,35.8,412.2,0,368,0z M159,432c0,43.6-35.4,79-79,79S1,475.6,1,432
		s35.4-79,79-79S159,388.4,159,432z M80,159c-43.6,0-79-35.4-79-79S36.4,1,80,1s79,35.4,79,79S123.6,159,80,159z M368,159
		c-43.6,0-79-35.4-79-79s35.4-79,79-79s79,35.4,79,79S411.6,159,368,159z"/>
	<path class="st1" d="M80,1C36.4,1,1,36.4,1,80s35.4,79,79,79s79-35.4,79-79S123.6,1,80,1z M80,104c-13.2,0-24-10.8-24-24
		s10.8-24,24-24s24,10.8,24,24S93.2,104,80,104z"/>
	<path class="st1" d="M368,1c-43.6,0-79,35.4-79,79s35.4,79,79,79s79-35.4,79-79S411.6,1,368,1z M368,104c-13.3,0-24-10.8-24-24
		s10.7-24,24-24s24,10.8,24,24S381.3,104,368,104z"/>
	<path class="st1" d="M80,353c-43.6,0-79,35.4-79,79s35.4,79,79,79s79-35.4,79-79S123.6,353,80,353z M80,456c-13.2,0-24-10.7-24-24
		s10.8-24,24-24s24,10.7,24,24S93.2,456,80,456z"/>
</g>
</svg>
